<svg width="32" height="26" viewBox="0 0 32 26" fill="none" xmlns="http://www.w3.org/2000/svg">
<path d="M2.78917 25.9005C1.78236 25.9005 0.963379 25.0837 0.963379 24.0795V1.92047C0.963379 0.916304 1.78236 0.0994873 2.78917 0.0994873H29.2106C30.2174 0.0994873 31.0364 0.916304 31.0364 1.92047V24.0795C31.0364 25.0837 30.2174 25.9005 29.2106 25.9005H2.78917ZM2.78917 1.2198C2.40222 1.2198 2.09041 1.53079 2.09041 1.91672V24.0758C2.09041 24.4617 2.40598 24.7727 2.78917 24.7727H29.2106C29.5975 24.7727 29.9093 24.4617 29.9093 24.0758V1.91672C29.9093 1.53079 29.5938 1.2198 29.2106 1.2198H2.78917Z" fill="#131C50"/>
<path d="M9.85191 5.79474C10.4557 5.79474 10.9451 5.30658 10.9451 4.7044C10.9451 4.10222 10.4557 3.61406 9.85191 3.61406C9.24814 3.61406 8.75869 4.10222 8.75869 4.7044C8.75869 5.30658 9.24814 5.79474 9.85191 5.79474Z" fill="#131C50"/>
<path d="M6.08762 5.79474C6.69139 5.79474 7.18084 5.30658 7.18084 4.7044C7.18084 4.10222 6.69139 3.61406 6.08762 3.61406C5.48385 3.61406 4.9944 4.10222 4.9944 4.7044C4.9944 5.30658 5.48385 5.79474 6.08762 5.79474Z" fill="#131C50"/>
<path d="M13.3119 5.79474C13.9157 5.79474 14.4051 5.30658 14.4051 4.7044C14.4051 4.10222 13.9157 3.61406 13.3119 3.61406C12.7081 3.61406 12.2187 4.10222 12.2187 4.7044C12.2187 5.30658 12.7081 5.79474 13.3119 5.79474Z" fill="#131C50"/>
<path d="M30.4691 7.91173H1.52314V9.03579H30.4691V7.91173Z" fill="#131C50"/>
<path d="M11.1255 15.4879L7.19587 16.908L11.1255 18.3168V19.8568L5.51659 17.6761V16.1474L11.1255 13.9405V15.4879Z" fill="#131C50"/>
<path d="M18.9734 11.7373L13.7364 21.8801H12.1623L17.3993 11.7373H18.9734Z" fill="#131C50"/>
<path d="M20.014 13.9442L25.5966 16.1511V17.6798L20.014 19.8605V18.3206L23.9323 16.9117L20.014 15.4917V13.9442Z" fill="#131C50"/>
</svg>
